<svg xmlns="http://www.w3.org/2000/svg" width="22.457" height="19.65" viewBox="0 0 22.457 19.65"><defs><style>.a{fill:#fb6676;}</style></defs><path class="a" d="M22.457,7.162V19.795A2.106,2.106,0,0,1,20.352,21.9H2.105A2.106,2.106,0,0,1,0,19.795V7.162A2.106,2.106,0,0,1,2.105,5.057h3.86L6.5,3.614A2.1,2.1,0,0,1,8.474,2.25h5.5a2.1,2.1,0,0,1,1.969,1.364l.544,1.443h3.86A2.106,2.106,0,0,1,22.457,7.162Zm-5.965,6.316a5.263,5.263,0,1,0-5.263,5.263A5.268,5.268,0,0,0,16.492,13.479Zm-1.4,0a3.86,3.86,0,1,1-3.86-3.86A3.865,3.865,0,0,1,15.088,13.479Z" transform="translate(0 -2.25)"/></svg>