<svg xmlns="http://www.w3.org/2000/svg" xmlns:xlink="http://www.w3.org/1999/xlink" width="290.213" height="204.008" viewBox="0 0 290.213 204.008"><defs><style>.a{fill:url(#a);}</style><linearGradient id="a" x1="0.5" x2="0.5" y2="1" gradientUnits="objectBoundingBox"><stop offset="0" stop-color="#fe285c"/><stop offset="1" stop-color="#f54a36"/></linearGradient></defs><path class="a" d="M290.213,102c0-56.335-44.243-102-98.818-102-46.345,0-85.231,32.934-95.909,77.364a46.333,46.333,0,0,0-15.941-2.823c-26.389,0-47.781,22.082-47.781,49.321a51.1,51.1,0,0,0,.812,9.024C14.419,133.905,0,149.422,0,168.419c0,19.655,15.436,35.589,34.478,35.589.846,0,1.683-.042,2.514-.1a8.916,8.916,0,0,0,1.287.1H193.566a8.84,8.84,0,0,0,.99-.057C247.668,202.227,290.213,157.247,290.213,102Z"/></svg>