<svg xmlns="http://www.w3.org/2000/svg" xmlns:xlink="http://www.w3.org/1999/xlink" width="359" height="79" viewBox="0 0 359 79"><defs><style>.a{fill:#ffae0c;}.b{fill:url(#a);}.c{clip-path:url(#b);}.d,.e{fill:#fff;}.e{font-size:25px;font-family:Roboto-Medium, Roboto;font-weight:500;}</style><linearGradient id="a" x1="0.103" y1="0.299" x2="1" y2="1" gradientUnits="objectBoundingBox"><stop offset="0" stop-color="#ffae0c"/><stop offset="1" stop-color="#e69a05"/></linearGradient><clipPath id="b"><rect class="a" width="70" height="79" rx="8" transform="translate(0 0)"/></clipPath></defs><g transform="translate(-8 -89)"><rect class="b" width="359" height="79" rx="8" transform="translate(8 89)"/><g class="c" transform="translate(297 89)"><g transform="translate(4.54 26.107)"><path class="d" d="M0,46.761V4.384A4.384,4.384,0,0,1,4.384,0h26.3a4.384,4.384,0,0,1,4.384,4.384V46.761L17.535,36.532Z" transform="translate(25.515 9.077) rotate(-15)"/><path class="d" d="M0,24.1V2.259A2.259,2.259,0,0,1,2.259,0H15.813a2.259,2.259,0,0,1,2.259,2.259V24.1L9.036,18.825Z" transform="translate(0 24.993) rotate(-45)"/></g></g><text class="e" transform="translate(29 137)"><tspan x="0" y="0">Publicar aunicios</tspan></text></g></svg>