<svg xmlns="http://www.w3.org/2000/svg" xmlns:xlink="http://www.w3.org/1999/xlink" width="1760" height="75" viewBox="0 0 1760 75"><defs><style>.a{fill:#00c6d4;}.b{fill:url(#a);}.c{clip-path:url(#b);}.d,.f{fill:#fff;}.e{clip-path:url(#c);}.f{font-size:30px;font-family:Roboto-Medium, Roboto;font-weight:500;}</style><linearGradient id="a" x1="0.051" y1="0.298" x2="1.215" y2="1.104" gradientUnits="objectBoundingBox"><stop offset="0" stop-color="#00c6d4"/><stop offset="1" stop-color="#048b94"/></linearGradient><clipPath id="b"><rect class="a" width="71" height="75" rx="8" transform="translate(2424.883 3307)"/></clipPath><clipPath id="c"><rect class="a" width="71" height="75" rx="8" transform="translate(0)"/></clipPath></defs><g transform="translate(-80 -595)"><rect class="b" width="1760" height="73" rx="8" transform="translate(80 595)"/><g class="c" transform="translate(-655.883 -2712)"><path class="d" d="M8.064,32.258H1.613A1.613,1.613,0,0,0,0,33.87v6.452a1.613,1.613,0,0,0,1.613,1.613H8.064a1.613,1.613,0,0,0,1.613-1.613V33.87A1.613,1.613,0,0,0,8.064,32.258ZM8.064,0H1.613A1.613,1.613,0,0,0,0,1.613V8.064A1.613,1.613,0,0,0,1.613,9.677H8.064A1.613,1.613,0,0,0,9.677,8.064V1.613A1.613,1.613,0,0,0,8.064,0Zm0,16.129H1.613A1.613,1.613,0,0,0,0,17.742v6.452a1.613,1.613,0,0,0,1.613,1.613H8.064a1.613,1.613,0,0,0,1.613-1.613V17.742A1.613,1.613,0,0,0,8.064,16.129ZM50,33.87H17.742a1.613,1.613,0,0,0-1.613,1.613v3.226a1.613,1.613,0,0,0,1.613,1.613H50a1.613,1.613,0,0,0,1.613-1.613V35.483A1.613,1.613,0,0,0,50,33.87ZM50,1.613H17.742a1.613,1.613,0,0,0-1.613,1.613V6.452a1.613,1.613,0,0,0,1.613,1.613H50a1.613,1.613,0,0,0,1.613-1.613V3.226A1.613,1.613,0,0,0,50,1.613Zm0,16.129H17.742a1.613,1.613,0,0,0-1.613,1.613V22.58a1.613,1.613,0,0,0,1.613,1.613H50a1.613,1.613,0,0,0,1.613-1.613V19.355A1.613,1.613,0,0,0,50,17.742Z" transform="translate(2439.018 3356.229) rotate(-30)"/></g><g class="e" transform="translate(80 595)"><path class="d" d="M8.064,9.677H1.613A1.613,1.613,0,0,1,0,8.064V1.613A1.613,1.613,0,0,1,1.613,0H8.064A1.613,1.613,0,0,1,9.677,1.613V8.064A1.613,1.613,0,0,1,8.064,9.677Zm0,32.258H1.613A1.613,1.613,0,0,1,0,40.322V33.87a1.613,1.613,0,0,1,1.613-1.613H8.064A1.613,1.613,0,0,1,9.677,33.87v6.452A1.613,1.613,0,0,1,8.064,41.935Zm0-16.129H1.613A1.613,1.613,0,0,1,0,24.193V17.742a1.613,1.613,0,0,1,1.613-1.613H8.064a1.613,1.613,0,0,1,1.613,1.613v6.452A1.613,1.613,0,0,1,8.064,25.806ZM50,8.064H17.742a1.613,1.613,0,0,1-1.613-1.613V3.226a1.613,1.613,0,0,1,1.613-1.613H50a1.613,1.613,0,0,1,1.613,1.613V6.452A1.613,1.613,0,0,1,50,8.064Zm0,32.258H17.742a1.613,1.613,0,0,1-1.613-1.613V35.483a1.613,1.613,0,0,1,1.613-1.613H50a1.613,1.613,0,0,1,1.613,1.613v3.226A1.613,1.613,0,0,1,50,40.322Zm0-16.129H17.742a1.613,1.613,0,0,1-1.613-1.613V19.355a1.613,1.613,0,0,1,1.613-1.613H50a1.613,1.613,0,0,1,1.613,1.613V22.58A1.613,1.613,0,0,1,50,24.193Z" transform="translate(35.899 85.546) rotate(-150)"/></g><text class="f" transform="translate(854 642)"><tspan x="0" y="0">Mis anuncios</tspan></text></g></svg>