<svg xmlns="http://www.w3.org/2000/svg" xmlns:xlink="http://www.w3.org/1999/xlink" width="356" height="229" viewBox="0 0 356 229"><defs><style>.a{fill:#ffae0c;}.b{fill:url(#a);}.c{clip-path:url(#b);}.d,.e{fill:#fff;}.e{font-size:30px;font-family:Roboto-Medium, Roboto;font-weight:500;}</style><linearGradient id="a" x1="0.103" y1="0.299" x2="1" y2="1" gradientUnits="objectBoundingBox"><stop offset="0" stop-color="#ffae0c"/><stop offset="1" stop-color="#e69a05"/></linearGradient><clipPath id="b"><rect class="a" width="165" height="183" rx="8" transform="translate(2340.926 3138)"/></clipPath></defs><g transform="translate(-295 -472)"><rect class="b" width="356" height="229" rx="8" transform="translate(295 472)"/><g class="c" transform="translate(-1854.926 -2620)"><g transform="translate(2352.613 3198.147)"><path class="d" d="M0,109.464v-99.2A10.262,10.262,0,0,1,10.262,0H71.836A10.262,10.262,0,0,1,82.1,10.262v99.2L41.049,85.519Z" transform="translate(59.728 21.249) rotate(-15)"/><path class="d" d="M0,56.406V5.288A5.288,5.288,0,0,1,5.288,0H37.016A5.288,5.288,0,0,1,42.3,5.288V56.406L21.152,44.067Z" transform="translate(0 58.506) rotate(-45)"/></g></g><text class="e" transform="translate(358 541)"><tspan x="0" y="0">Publicar aunicios</tspan></text><path class="d" d="M25.212,11.6a1.233,1.233,0,0,0-.009,1.737l5.729,5.748H9.1a1.227,1.227,0,0,0,0,2.454H30.932l-5.739,5.748a1.242,1.242,0,0,0,.009,1.737,1.222,1.222,0,0,0,1.727-.009l7.778-7.834h0a1.378,1.378,0,0,0,.255-.387,1.171,1.171,0,0,0,.094-.472,1.23,1.23,0,0,0-.349-.859L26.93,11.627A1.2,1.2,0,0,0,25.212,11.6Z" transform="translate(349.652 647.437)"/></g></svg>