<svg xmlns="http://www.w3.org/2000/svg" xmlns:xlink="http://www.w3.org/1999/xlink" width="20.436" height="28.738" viewBox="0 0 20.436 28.738"><defs><style>.a{fill:#39d6ff;}.b{clip-path:url(#a);}</style><clipPath id="a"><rect class="a" width="20.436" height="28.738"/></clipPath></defs><g class="b" transform="translate(0 0)"><path class="a" d="M4.444,16.059,2.632,23.081A3.04,3.04,0,0,1,0,19.992,7.3,7.3,0,0,1,.51,17C2.966,11.686,5.524,6.421,8.056,1.145,8.707-.211,9.682-.275,10.842.5a2.063,2.063,0,0,1,.685,3.018c-1.222,1.917-2.39,3.869-3.589,5.8-.444.715-.909,1.416-1.433,2.232a5.649,5.649,0,0,0,.949-.43,19.431,19.431,0,0,0,6.362-7,11.282,11.282,0,0,0,.612-2.255c.106-.4.162-1.088.351-1.129A2.113,2.113,0,0,1,16.2.967a3.357,3.357,0,0,1,.682,4.95A36.537,36.537,0,0,1,7.521,15.2c1.195,4.49,3.734,6.113,6.9,4.458,1.016,1.778.818,3.379-.557,4.5A3.21,3.21,0,0,1,9.4,23.644a47.827,47.827,0,0,1-3.651-5.878,11.947,11.947,0,0,1-.687-1.7l-.617-.007" transform="translate(1.388 1.951)"/></g></svg>