<svg xmlns="http://www.w3.org/2000/svg" xmlns:xlink="http://www.w3.org/1999/xlink" width="356" height="229" viewBox="0 0 356 229"><defs><style>.a{fill:#0085fa;}.b{fill:url(#a);}.c{clip-path:url(#b);}.d,.e{fill:#fff;}.e{font-size:30px;font-family:Roboto-Medium, Roboto;font-weight:500;}</style><linearGradient id="a" x1="-0.034" y1="0.193" x2="1.216" y2="1.299" gradientUnits="objectBoundingBox"><stop offset="0" stop-color="#0085fa"/><stop offset="1" stop-color="#0459a3"/></linearGradient><clipPath id="b"><rect class="a" width="196" height="177" rx="8" transform="translate(2175 3075.992)"/></clipPath></defs><g transform="translate(-1235 -472)"><rect class="b" width="356" height="229" rx="8" transform="translate(1235 472)"/><g class="c" transform="translate(-780 -2551.992)"><path class="d" d="M140.287,110.768l-32.78-32.78A20.785,20.785,0,0,0,83.6,74.1L53.761,44.257V26.873L17.93,0,.014,17.916,26.887,53.747H44.271L74.112,83.587A20.83,20.83,0,0,0,78,107.493l32.78,32.78a10.408,10.408,0,0,0,14.752,0l14.752-14.752a10.458,10.458,0,0,0,0-14.752ZM92.867,62.984a29.452,29.452,0,0,1,20.967,8.678l5.431,5.431a39.624,39.624,0,0,0,12.261-8.258,40.258,40.258,0,0,0,10.609-38.266,3.351,3.351,0,0,0-5.627-1.54L115.681,49.856,96.674,46.692,93.511,27.685,114.338,6.858a3.38,3.38,0,0,0-1.6-5.655A40.324,40.324,0,0,0,74.5,11.813a39.67,39.67,0,0,0-11.533,29L85.953,63.8A30.5,30.5,0,0,1,92.867,62.984ZM63.782,85.939,47.91,70.067,5.249,112.756A17.914,17.914,0,0,0,30.582,138.09l34.6-34.6a30.061,30.061,0,0,1-1.4-17.552ZM17.93,132.127a6.718,6.718,0,1,1,6.718-6.718A6.738,6.738,0,0,1,17.93,132.127Z" transform="matrix(0.914, -0.407, 0.407, 0.914, 2203.246, 3180.096)"/></g><text class="e" transform="translate(1322 542)"><tspan x="0" y="0">Herramientas</tspan></text><path class="d" d="M25.212,11.6a1.233,1.233,0,0,0-.009,1.737l5.729,5.748H9.1a1.227,1.227,0,0,0,0,2.454H30.932l-5.739,5.748a1.242,1.242,0,0,0,.009,1.737,1.222,1.222,0,0,0,1.727-.009l7.778-7.834h0a1.378,1.378,0,0,0,.255-.387,1.171,1.171,0,0,0,.094-.472,1.23,1.23,0,0,0-.349-.859L26.93,11.627A1.2,1.2,0,0,0,25.212,11.6Z" transform="translate(1278.652 647.437)"/></g></svg>