<svg xmlns="http://www.w3.org/2000/svg" xmlns:xlink="http://www.w3.org/1999/xlink" width="359" height="79" viewBox="0 0 359 79"><defs><style>.a{fill:#00c6d4;}.b{fill:url(#a);}.c{clip-path:url(#b);}.d,.e{fill:#fff;}.e{font-size:25px;font-family:Roboto-Medium, Roboto;font-weight:500;}</style><linearGradient id="a" x1="0.051" y1="0.298" x2="1.215" y2="1.104" gradientUnits="objectBoundingBox"><stop offset="0" stop-color="#00c6d4"/><stop offset="1" stop-color="#048b94"/></linearGradient><clipPath id="b"><rect class="a" width="87" height="79" rx="8" transform="translate(0.5)"/></clipPath></defs><g transform="translate(-8 -87)"><rect class="b" width="359" height="79" rx="8" transform="translate(8 87)"/><g class="c" transform="translate(279.5 87)"><path class="d" d="M10.359,36.286,3.577,35.8a1.5,1.5,0,0,0-1.589,1.677l.425,7.194a2.053,2.053,0,0,0,1.8,1.92L11,47.078A1.5,1.5,0,0,0,12.586,45.4l-.425-7.194A2.053,2.053,0,0,0,10.359,36.286ZM8.234.314,1.452-.172A1.5,1.5,0,0,0-.138,1.5L.288,8.7a2.053,2.053,0,0,0,1.8,1.92l6.782.486A1.5,1.5,0,0,0,10.46,9.429l-.425-7.194A2.053,2.053,0,0,0,8.234.314ZM9.3,18.3l-6.782-.486A1.5,1.5,0,0,0,.925,19.491l.425,7.194a2.053,2.053,0,0,0,1.8,1.92l6.782.486a1.5,1.5,0,0,0,1.589-1.677L11.1,20.22A2.053,2.053,0,0,0,9.3,18.3ZM54.548,41.245l-33.91-2.431a1.5,1.5,0,0,0-1.589,1.677l.213,3.6a2.053,2.053,0,0,0,1.8,1.92l33.91,2.431a1.5,1.5,0,0,0,1.589-1.677l-.213-3.6A2.053,2.053,0,0,0,54.548,41.245ZM52.422,5.273,18.513,2.842a1.5,1.5,0,0,0-1.589,1.677l.213,3.6a2.053,2.053,0,0,0,1.8,1.92l33.91,2.431a1.5,1.5,0,0,0,1.589-1.677l-.213-3.6A2.053,2.053,0,0,0,52.422,5.273Zm1.063,17.986-33.91-2.431A1.5,1.5,0,0,0,17.986,22.5l.213,3.6a2.053,2.053,0,0,0,1.8,1.92l33.91,2.431A1.5,1.5,0,0,0,55.5,28.776l-.213-3.6A2.053,2.053,0,0,0,53.485,23.259Z" transform="translate(23.772 48.272) rotate(-30)"/></g><text class="e" transform="translate(35 136)"><tspan x="0" y="0">Mis anuncios</tspan></text></g></svg>