<svg xmlns="http://www.w3.org/2000/svg" xmlns:xlink="http://www.w3.org/1999/xlink" width="1760" height="75" viewBox="0 0 1760 75"><defs><style>.a{fill:#0085fa;}.b{fill:url(#a);}.c{clip-path:url(#b);}.d,.f{fill:#fff;}.e{clip-path:url(#c);}.f{font-size:30px;font-family:Roboto-Medium, Roboto;font-weight:500;}</style><linearGradient id="a" x1="-0.034" y1="0.193" x2="1.216" y2="1.299" gradientUnits="objectBoundingBox"><stop offset="0" stop-color="#0085fa"/><stop offset="1" stop-color="#0459a3"/></linearGradient><clipPath id="b"><rect class="a" width="80" height="75" rx="8" transform="translate(2176.25 3075.529)"/></clipPath><clipPath id="c"><rect class="a" width="80" height="75" rx="8"/></clipPath></defs><g transform="translate(-80 -366)"><g transform="translate(0 -151)"><rect class="b" width="1760" height="75" rx="8" transform="translate(80 517)"/><g class="c" transform="translate(-416.25 -2558.529)"><path class="d" d="M58.763,46.4,45.032,32.667a8.706,8.706,0,0,0-10.014-1.63l-12.5-12.5V11.257L7.51,0,.006,7.5,11.262,22.513h7.282l12.5,12.5a8.725,8.725,0,0,0,1.63,10.014L46.4,58.757a4.359,4.359,0,0,0,6.179,0l6.179-6.179a4.381,4.381,0,0,0,0-6.179ZM38.9,26.383a12.337,12.337,0,0,1,8.782,3.635l2.275,2.275a16.6,16.6,0,0,0,5.136-3.459A16.863,16.863,0,0,0,59.537,12.8a1.4,1.4,0,0,0-2.357-.645l-8.724,8.724-7.962-1.325L39.169,11.6l8.724-8.724A1.416,1.416,0,0,0,47.225.5,16.891,16.891,0,0,0,31.208,4.948,16.617,16.617,0,0,0,26.377,17.1L36,26.723A12.774,12.774,0,0,1,38.9,26.383ZM26.717,36l-6.648-6.648L2.2,47.231A7.5,7.5,0,0,0,12.81,57.842L27.3,43.349A12.592,12.592,0,0,1,26.717,36ZM7.51,55.345a2.814,2.814,0,1,1,2.814-2.814A2.822,2.822,0,0,1,7.51,55.345Z" transform="matrix(0.914, -0.407, 0.407, 0.914, 2186.815, 3119.565)"/></g><g class="e" transform="translate(80 517)"><path class="d" d="M58.763,13.643,45.032,27.373A8.706,8.706,0,0,1,35.018,29l-12.5,12.5v7.282L7.51,60.041l-7.5-7.5L11.262,37.528h7.282l12.5-12.5a8.725,8.725,0,0,1,1.63-10.014L46.4,1.284a4.359,4.359,0,0,1,6.179,0l6.179,6.179a4.381,4.381,0,0,1,0,6.179ZM38.9,33.658a12.337,12.337,0,0,0,8.782-3.635l2.275-2.275a16.6,16.6,0,0,1,5.136,3.459,16.863,16.863,0,0,1,4.444,16.029,1.4,1.4,0,0,1-2.357.645l-8.724-8.724-7.962,1.325-1.325,7.962,8.724,8.724a1.416,1.416,0,0,1-.668,2.369,16.891,16.891,0,0,1-16.017-4.444,16.617,16.617,0,0,1-4.831-12.148L36,33.318A12.774,12.774,0,0,0,38.9,33.658ZM26.717,24.043l-6.648,6.648L2.2,12.81A7.5,7.5,0,0,1,12.81,2.2L27.3,16.691a12.592,12.592,0,0,0-.586,7.352ZM7.51,4.7A2.814,2.814,0,1,0,10.324,7.51,2.822,2.822,0,0,0,7.51,4.7Z" transform="matrix(-0.914, -0.407, 0.407, -0.914, 45.015, 98.886)"/></g><text class="f" transform="translate(869 565)"><tspan x="0" y="0">Herramientas</tspan></text></g></g></svg>