<svg id="Capa_1" data-name="Capa 1" xmlns="http://www.w3.org/2000/svg" viewBox="0 0 356 121"><defs><style>.cls-1{fill:#fb6676;}.cls-2,.cls-3{isolation:isolate;}.cls-3{font-size:30px;font-family:Roboto-Medium, Roboto;font-weight:500;}.cls-3,.cls-7{fill:#fff;}.cls-4{letter-spacing:-0.02em;}.cls-5{letter-spacing:-0.01em;}.cls-6{letter-spacing:-0.01em;}</style></defs><rect class="cls-1" width="356" height="121" rx="8"/><g class="cls-2"><text class="cls-3" transform="translate(27 70)"><tspan class="cls-4">F</tspan><tspan class="cls-5" x="15.98" y="0">av</tspan><tspan x="46.61" y="0">ori</tspan><tspan class="cls-6" x="81.9" y="0">t</tspan><tspan x="91.44" y="0">os</tspan></text></g><path class="cls-7" d="M339.89,30.07c-10.34-7.75-25.13-5.65-33.91,3.82l-3.44,3.7-3.75-3.39c-9.53-8.69-24.47-9.53-34.11-.94a24.45,24.45,0,0,0-.26,36.44l36.75,33.44a5.89,5.89,0,0,0,8.26-.35l33.79-36.44a24.42,24.42,0,0,0-3.33-36.28Z" transform="translate(0 0)"/><path class="cls-7" d="M249.47,71.87a10.25,10.25,0,0,0-12.2,6l-.79,1.85L234.62,79A10.25,10.25,0,0,0,221.7,83.2a9.74,9.74,0,0,0,4.81,13.69l18.29,7.6a2.35,2.35,0,0,0,3-1.25L255.61,85a9.74,9.74,0,0,0-6.14-13.16Z" transform="translate(0 0)"/></svg>