<svg xmlns="http://www.w3.org/2000/svg" xmlns:xlink="http://www.w3.org/1999/xlink" width="356" height="121" viewBox="0 0 356 121"><defs><style>.a{fill:#ffae0c;}.b{fill:url(#a);}.c{clip-path:url(#b);}.d,.e{fill:#fff;}.e{font-size:27px;font-family:Roboto-Medium, Roboto;font-weight:500;}</style><linearGradient id="a" x1="0.103" y1="0.299" x2="1" y2="1" gradientUnits="objectBoundingBox"><stop offset="0" stop-color="#ffae0c"/><stop offset="1" stop-color="#e69a05"/></linearGradient><clipPath id="b"><rect class="a" width="109" height="121" rx="8" transform="translate(2341 3138)"/></clipPath></defs><g transform="translate(-10 -135)"><rect class="b" width="356" height="121" rx="8" transform="translate(10 135)"/><g class="c" transform="translate(-2084 -3003)"><g transform="translate(-12 112)"><path class="d" d="M0,72.378V6.785A6.785,6.785,0,0,1,6.785,0H47.5a6.785,6.785,0,0,1,6.785,6.785V72.378L27.142,56.545Z" transform="translate(2400.171 3079.819) rotate(-15)"/><path class="d" d="M0,37.3V3.5A3.5,3.5,0,0,1,3.5,0H24.475a3.5,3.5,0,0,1,3.5,3.5V37.3L13.986,29.137Z" transform="translate(2360.678 3104.454) rotate(-45)"/></g></g><text class="e" transform="translate(37 205)"><tspan x="0" y="0">Publicar aunicios</tspan></text></g></svg>