<svg id="Capa_1" data-name="Capa 1" xmlns="http://www.w3.org/2000/svg" viewBox="0 0 386.36 229"><defs><style>.cls-1{fill:#fb6676;}.cls-2,.cls-3{isolation:isolate;}.cls-3{font-size:30px;font-family:Roboto-Medium, Roboto;font-weight:500;}.cls-3,.cls-7{fill:#fff;}.cls-4{letter-spacing:-0.02em;}.cls-5{letter-spacing:-0.01em;}.cls-6{letter-spacing:-0.01em;}</style></defs><rect class="cls-1" width="356" height="229" rx="8"/><g class="cls-2"><text class="cls-3" transform="translate(63 69)"><tspan class="cls-4">F</tspan><tspan class="cls-5" x="15.98" y="0">av</tspan><tspan x="46.61" y="0">ori</tspan><tspan class="cls-6" x="81.9" y="0">t</tspan><tspan x="91.44" y="0">os</tspan></text></g><path class="cls-7" d="M79.86,187a1.22,1.22,0,0,0,0,1.73l5.72,5.75H63.75a1.23,1.23,0,0,0,0,2.46H85.58l-5.73,5.74a1.25,1.25,0,0,0,0,1.74,1.23,1.23,0,0,0,1.73,0l7.78-7.83h0a1.36,1.36,0,0,0,.25-.39,1.1,1.1,0,0,0,.1-.47,1.25,1.25,0,0,0-.35-.86l-7.78-7.84a1.19,1.19,0,0,0-1.69,0Z" transform="translate(0 0)"/><path class="cls-7" d="M358,83.9c-21.5-8.12-45.74,2.78-56.07,23.31l-4.05,8-8.08-4c-20.59-10.13-46.54-4.18-58.77,15.28A43.49,43.49,0,0,0,248.65,189l79.36,39A10.49,10.49,0,0,0,342,223.25l39.72-79A43.45,43.45,0,0,0,358,83.9Z" transform="translate(0 0)"/><path class="cls-7" d="M228.68,182.38c-5.86-4.39-14.24-3.2-19.22,2.17l-2,2.1-2.12-1.93c-5.4-4.92-13.87-5.4-19.33-.53a13.86,13.86,0,0,0-.15,20.65l20.83,18.95a3.34,3.34,0,0,0,4.68-.2l19.14-20.65a13.85,13.85,0,0,0-1.88-20.56Z" transform="translate(0 0)"/></svg>