<svg xmlns="http://www.w3.org/2000/svg" xmlns:xlink="http://www.w3.org/1999/xlink" width="16.844" height="23.687" viewBox="0 0 16.844 23.687"><defs><style>.a{fill:#39d6ff;}.b{clip-path:url(#a);}</style><clipPath id="a"><rect class="a" width="16.844" height="23.687"/></clipPath></defs><g class="b" transform="translate(0 0)"><path class="a" d="M3.663,13.236,2.17,19.024A2.505,2.505,0,0,1,0,16.478a6.019,6.019,0,0,1,.42-2.468C2.445,9.632,4.553,5.293,6.639.944,7.176-.174,7.98-.226,8.936.411A1.7,1.7,0,0,1,9.5,2.9C8.494,4.479,7.531,6.087,6.543,7.68c-.366.589-.749,1.167-1.181,1.84a4.656,4.656,0,0,0,.782-.355,16.015,16.015,0,0,0,5.244-5.774,9.3,9.3,0,0,0,.5-1.858c.087-.328.133-.9.29-.93A1.742,1.742,0,0,1,13.354.8a2.767,2.767,0,0,1,.562,4.08A30.114,30.114,0,0,1,6.2,12.532c.985,3.7,3.077,5.038,5.69,3.674.837,1.466.674,2.785-.459,3.707a2.645,2.645,0,0,1-3.683-.425,39.42,39.42,0,0,1-3.009-4.845,9.847,9.847,0,0,1-.566-1.4l-.509-.006" transform="translate(1.144 1.608)"/></g></svg>