<svg xmlns="http://www.w3.org/2000/svg" xmlns:xlink="http://www.w3.org/1999/xlink" width="356" height="121" viewBox="0 0 356 121"><defs><style>.a{fill:#00c6d4;}.b{fill:url(#a);}.c{clip-path:url(#b);}.d,.e{fill:#fff;}.e{font-size:27px;font-family:Roboto-Medium, Roboto;font-weight:500;}</style><linearGradient id="a" x1="0.051" y1="0.298" x2="1.215" y2="1.104" gradientUnits="objectBoundingBox"><stop offset="0" stop-color="#00c6d4"/><stop offset="1" stop-color="#048b94"/></linearGradient><clipPath id="b"><rect class="a" width="115" height="121" rx="8" transform="translate(2425 3306)"/></clipPath></defs><g transform="translate(-10 -267)"><rect class="b" width="356" height="121" rx="8" transform="translate(10 267)"/><g class="c" transform="translate(-2174 -3039)"><path class="d" d="M13.011,55.417H2.6a2.6,2.6,0,0,0-2.6,2.6V68.428a2.6,2.6,0,0,0,2.6,2.6H13.011a2.6,2.6,0,0,0,2.6-2.6V58.019A2.6,2.6,0,0,0,13.011,55.417Zm0-52.042H2.6A2.6,2.6,0,0,0,0,5.977V16.386a2.6,2.6,0,0,0,2.6,2.6H13.011a2.6,2.6,0,0,0,2.6-2.6V5.977A2.6,2.6,0,0,0,13.011,3.375Zm0,26.021H2.6A2.6,2.6,0,0,0,0,32V42.407a2.6,2.6,0,0,0,2.6,2.6H13.011a2.6,2.6,0,0,0,2.6-2.6V32A2.6,2.6,0,0,0,13.011,29.4ZM80.665,58.019H28.623a2.6,2.6,0,0,0-2.6,2.6v5.2a2.6,2.6,0,0,0,2.6,2.6H80.665a2.6,2.6,0,0,0,2.6-2.6v-5.2A2.6,2.6,0,0,0,80.665,58.019Zm0-52.042H28.623a2.6,2.6,0,0,0-2.6,2.6v5.2a2.6,2.6,0,0,0,2.6,2.6H80.665a2.6,2.6,0,0,0,2.6-2.6v-5.2A2.6,2.6,0,0,0,80.665,5.977Zm0,26.021H28.623a2.6,2.6,0,0,0-2.6,2.6v5.2a2.6,2.6,0,0,0,2.6,2.6H80.665a2.6,2.6,0,0,0,2.6-2.6V34.6A2.6,2.6,0,0,0,80.665,32Z" transform="translate(2446.343 3383.224) rotate(-30)"/></g><text class="e" transform="translate(37 337)"><tspan x="0" y="0">Mis anuncios</tspan></text></g></svg>