<svg xmlns="http://www.w3.org/2000/svg" xmlns:xlink="http://www.w3.org/1999/xlink" width="356" height="121" viewBox="0 0 356 121"><defs><style>.a{fill:#0085fa;}.b{fill:url(#a);}.c{clip-path:url(#b);}.d,.e{fill:#fff;}.e{font-size:27px;font-family:Roboto-Medium, Roboto;font-weight:500;}</style><linearGradient id="a" x1="-0.034" y1="0.193" x2="1.216" y2="1.299" gradientUnits="objectBoundingBox"><stop offset="0" stop-color="#0085fa"/><stop offset="1" stop-color="#0459a3"/></linearGradient><clipPath id="b"><rect class="a" width="134" height="121" rx="8" transform="translate(2175 3076)"/></clipPath></defs><g transform="translate(-10 -399)"><rect class="b" width="356" height="121" rx="8" transform="translate(10 399)"/><g class="c" transform="translate(-1943 -2677)"><path class="d" d="M95.907,75.729,73.5,53.319a14.21,14.21,0,0,0-16.344-2.66l-20.4-20.4V18.373L12.254,0,.006,12.248l18.373,24.5H30.263l20.4,20.4a14.241,14.241,0,0,0,2.66,16.344L75.736,95.9a7.115,7.115,0,0,0,10.086,0L95.907,85.815a7.15,7.15,0,0,0,0-10.086ZM63.487,43.061a20.136,20.136,0,0,1,14.334,5.933l3.713,3.713a27.09,27.09,0,0,0,8.382-5.646A27.523,27.523,0,0,0,97.17,20.9a2.291,2.291,0,0,0-3.847-1.053L79.085,34.085,66.09,31.922,63.927,18.928,78.166,4.689A2.311,2.311,0,0,0,77.075.823,27.569,27.569,0,0,0,50.933,8.076,27.121,27.121,0,0,0,43.048,27.9L58.76,43.616A20.848,20.848,0,0,1,63.487,43.061ZM43.6,58.754,32.751,47.9,3.585,77.088A12.247,12.247,0,0,0,20.9,94.408L44.56,70.754a20.552,20.552,0,0,1-.957-12ZM12.254,90.332a4.593,4.593,0,1,1,4.593-4.593A4.607,4.607,0,0,1,12.254,90.332Z" transform="matrix(0.914, -0.407, 0.407, 0.914, 2194.314, 3147.167)"/></g><text class="e" transform="translate(37 469)"><tspan x="0" y="0">Herramientas</tspan></text></g></svg>