<svg xmlns="http://www.w3.org/2000/svg" xmlns:xlink="http://www.w3.org/1999/xlink" width="356" height="229" viewBox="0 0 356 229"><defs><style>.a{fill:#00c6d4;}.b{fill:url(#a);}.c{clip-path:url(#b);}.d,.e{fill:#fff;}.e{font-size:30px;font-family:Roboto-Medium, Roboto;font-weight:500;}</style><linearGradient id="a" x1="0.051" y1="0.298" x2="1.215" y2="1.104" gradientUnits="objectBoundingBox"><stop offset="0" stop-color="#00c6d4"/><stop offset="1" stop-color="#048b94"/></linearGradient><clipPath id="b"><rect class="a" width="175" height="183" rx="8" transform="translate(2424.523 3307)"/></clipPath></defs><g transform="translate(-765 -472)"><rect class="b" width="356" height="229" rx="8" transform="translate(765 472)"/><g class="c" transform="translate(-1478.522 -2789)"><path class="d" d="M19.677,78.709H3.935A3.935,3.935,0,0,0,0,82.644V98.386a3.935,3.935,0,0,0,3.935,3.935H19.677a3.935,3.935,0,0,0,3.935-3.935V82.644A3.935,3.935,0,0,0,19.677,78.709ZM19.677,0H3.935A3.935,3.935,0,0,0,0,3.935V19.677a3.935,3.935,0,0,0,3.935,3.935H19.677a3.935,3.935,0,0,0,3.935-3.935V3.935A3.935,3.935,0,0,0,19.677,0Zm0,39.354H3.935A3.935,3.935,0,0,0,0,43.29V59.031a3.935,3.935,0,0,0,3.935,3.935H19.677a3.935,3.935,0,0,0,3.935-3.935V43.29A3.935,3.935,0,0,0,19.677,39.354ZM122,82.644H43.29a3.935,3.935,0,0,0-3.935,3.935V94.45a3.935,3.935,0,0,0,3.935,3.935H122a3.935,3.935,0,0,0,3.935-3.935V86.579A3.935,3.935,0,0,0,122,82.644Zm0-78.709H43.29a3.935,3.935,0,0,0-3.935,3.935v7.871a3.935,3.935,0,0,0,3.935,3.935H122a3.935,3.935,0,0,0,3.935-3.935V7.871A3.935,3.935,0,0,0,122,3.935Zm0,39.354H43.29a3.935,3.935,0,0,0-3.935,3.935V55.1a3.935,3.935,0,0,0,3.935,3.935H122a3.935,3.935,0,0,0,3.935-3.935V47.225A3.935,3.935,0,0,0,122,43.29Z" transform="translate(2459.891 3427.119) rotate(-30)"/></g><text class="e" transform="translate(854 542)"><tspan x="0" y="0">Mis anuncios</tspan></text><path class="d" d="M25.212,11.6a1.233,1.233,0,0,0-.009,1.737l5.729,5.748H9.1a1.227,1.227,0,0,0,0,2.454H30.932l-5.739,5.748a1.242,1.242,0,0,0,.009,1.737,1.222,1.222,0,0,0,1.727-.009l7.778-7.834h0a1.378,1.378,0,0,0,.255-.387,1.171,1.171,0,0,0,.094-.472,1.23,1.23,0,0,0-.349-.859L26.93,11.627A1.2,1.2,0,0,0,25.212,11.6Z" transform="translate(810.652 647.437)"/></g></svg>