<svg xmlns="http://www.w3.org/2000/svg" xmlns:xlink="http://www.w3.org/1999/xlink" width="359" height="81" viewBox="0 0 359 81"><defs><style>.a{fill:#0085fa;}.b{fill:url(#a);}.c{clip-path:url(#b);}.d,.e{fill:#fff;}.e{font-size:25px;font-family:Roboto-Medium, Roboto;font-weight:500;}</style><linearGradient id="a" x1="-0.034" y1="0.193" x2="1.216" y2="1.299" gradientUnits="objectBoundingBox"><stop offset="0" stop-color="#0085fa"/><stop offset="1" stop-color="#0459a3"/></linearGradient><clipPath id="b"><rect class="a" width="87" height="79" rx="8" transform="translate(2174.961 3075.843)"/></clipPath></defs><g transform="translate(-8 -87)"><rect class="b" width="359" height="81" rx="8" transform="translate(8 87)"/><g class="c" transform="translate(-1894.961 -2986.843)"><path class="d" d="M62.394,49.265,47.815,34.686a9.244,9.244,0,0,0-10.632-1.731L23.91,19.684V11.952L7.974,0,.006,7.968,11.958,23.9H19.69L32.962,37.176a9.264,9.264,0,0,0,1.731,10.632L49.271,62.387a4.629,4.629,0,0,0,6.561,0l6.561-6.561a4.651,4.651,0,0,0,0-6.561ZM41.3,28.013a13.1,13.1,0,0,1,9.325,3.86l2.415,2.415A17.623,17.623,0,0,0,58.5,30.615,17.9,17.9,0,0,0,63.215,13.6a1.49,1.49,0,0,0-2.5-.685L51.45,22.174,43,20.767,41.59,12.313,50.852,3.05a1.5,1.5,0,0,0-.71-2.515A17.935,17.935,0,0,0,33.136,5.254a17.643,17.643,0,0,0-5.129,12.9L38.228,28.374A13.563,13.563,0,0,1,41.3,28.013ZM28.368,38.222l-7.059-7.059L2.334,50.149A7.967,7.967,0,0,0,13.6,61.416L28.99,46.028a13.37,13.37,0,0,1-.623-7.806ZM7.974,58.764a2.988,2.988,0,1,1,2.988-2.988A3,3,0,0,1,7.974,58.764Z" transform="matrix(0.914, -0.407, 0.407, 0.914, 2187.543, 3122.283)"/></g><text class="e" transform="translate(37 136)"><tspan x="0" y="0">Herramientas</tspan></text></g></svg>