<svg xmlns="http://www.w3.org/2000/svg" xmlns:xlink="http://www.w3.org/1999/xlink" width="14.123" height="19.86" viewBox="0 0 14.123 19.86"><defs><style>.a{fill:#39d6ff;stroke:#55a5ba;stroke-width:0.6px;}.b{clip-path:url(#a);}</style><clipPath id="a"><rect class="a" width="14.123" height="19.86"/></clipPath></defs><g transform="translate(2.386 3.355)"><g class="b" transform="translate(-2.386 -3.355)"><path class="a" d="M3.071,11.1,1.819,15.951A2.1,2.1,0,0,1,0,13.816a5.047,5.047,0,0,1,.352-2.07C2.05,8.076,3.817,4.438,5.567.792,6.017-.146,6.691-.19,7.493.345A1.426,1.426,0,0,1,7.966,2.43C7.122,3.755,6.314,5.1,5.486,6.44c-.307.494-.628.979-.99,1.542a3.9,3.9,0,0,0,.656-.3,13.428,13.428,0,0,0,4.4-4.841,7.8,7.8,0,0,0,.423-1.558c.073-.275.112-.752.243-.78A1.46,1.46,0,0,1,11.2.669a2.32,2.32,0,0,1,.471,3.421A25.25,25.25,0,0,1,5.2,10.507c.826,3.1,2.58,4.224,4.771,3.081A2.241,2.241,0,0,1,9.583,16.7,2.218,2.218,0,0,1,6.5,16.34a33.052,33.052,0,0,1-2.523-4.062A8.256,8.256,0,0,1,3.5,11.1L3.071,11.1" transform="translate(0.959 1.348)"/></g></g></svg>