<svg xmlns="http://www.w3.org/2000/svg" xmlns:xlink="http://www.w3.org/1999/xlink" width="1760.001" height="75" viewBox="0 0 1760.001 75"><defs><style>.a{fill:#ffae0c;}.b{fill:url(#a);}.c{clip-path:url(#b);}.d,.f{fill:#fff;}.e{clip-path:url(#c);}.f{font-size:30px;font-family:Roboto-Medium, Roboto;font-weight:500;}</style><linearGradient id="a" x1="0.103" y1="0.299" x2="1" y2="1" gradientUnits="objectBoundingBox"><stop offset="0" stop-color="#ffae0c"/><stop offset="1" stop-color="#e69a05"/></linearGradient><clipPath id="b"><rect class="a" width="69" height="75" rx="8" transform="translate(2341.081 3139)"/></clipPath><clipPath id="c"><rect class="a" width="69" height="75" rx="8" transform="translate(0)"/></clipPath></defs><g transform="translate(-80 -533)"><rect class="b" width="1760" height="75" rx="8" transform="translate(80 533)"/><g class="c" transform="translate(-570.08 -2606)"><g transform="translate(2345.818 3163.138)"><path class="d" d="M0,45.78V4.292A4.292,4.292,0,0,1,4.292,0H30.043a4.292,4.292,0,0,1,4.292,4.292V45.78L17.168,35.766Z" transform="translate(24.979 8.887) rotate(-15)"/><path class="d" d="M0,23.59V2.212A2.212,2.212,0,0,1,2.212,0H15.481a2.212,2.212,0,0,1,2.212,2.212V23.59L8.846,18.43Z" transform="translate(0 24.468) rotate(-45)"/></g></g><g class="e" transform="translate(80 533)"><g transform="translate(-5.731 24.138)"><path class="d" d="M0,0V41.488A4.292,4.292,0,0,0,4.292,45.78H30.043a4.292,4.292,0,0,0,4.292-4.292V0L17.168,10.014Z" transform="matrix(-0.966, -0.259, 0.259, -0.966, 33.165, 53.107)"/><path class="d" d="M0,0V21.378A2.212,2.212,0,0,0,2.212,23.59H15.481a2.212,2.212,0,0,0,2.212-2.212V0L8.846,5.16Z" transform="translate(53.313 41.149) rotate(-135)"/></g></g><text class="f" transform="translate(845 581)"><tspan x="0" y="0">Publicar aunicios</tspan></text></g></svg>