<svg xmlns="http://www.w3.org/2000/svg" width="88.844" height="78.973" viewBox="0 0 88.844 78.973"><defs><style>.a{fill:#fb6676;}</style></defs><path class="a" d="M87.844,67.869a7.408,7.408,0,0,1-6.413,11.1H7.412A7.408,7.408,0,0,1,1,67.869L38.009,3.7a7.408,7.408,0,0,1,12.826,0L78.823,52.228ZM44.422,55.351c-3.919,0-6.346,2.428-6.346,6.346s2.428,6.346,6.346,6.346,6.346-2.428,6.346-6.346S48.341,55.351,44.422,55.351ZM38.435,23.857,39.579,47.83a1.851,1.851,0,0,0,1.848,1.75h5.242a1.851,1.851,0,0,0,1.848-1.75L49.6,24.937l.059-1.08a1.851,1.851,0,0,0-1.848-1.952h-7.53a1.927,1.927,0,0,0-1.757,1.267,1.559,1.559,0,0,0-.091.684Z"/></svg>