<svg xmlns="http://www.w3.org/2000/svg" width="30.536" height="28.993" viewBox="0 0 30.536 28.993"><defs><style>.a{fill:#43e389;}</style></defs><path class="a" d="M17.8,2.25C9.516,2.25,2.8,8.573,2.8,16.373a13.454,13.454,0,0,0,2.151,7.293L2.25,31.243l8.3-2.5A15.655,15.655,0,0,0,17.8,30.5c8.28,0,14.991-6.324,14.991-14.123S26.075,2.25,17.8,2.25Zm7.454,19.487A3.9,3.9,0,0,1,22.6,23.359c-.7.035-.723.517-4.556-1.064s-6.138-5.426-6.32-5.674a6.778,6.778,0,0,1-1.414-3.783A3.97,3.97,0,0,1,11.767,9.88a1.511,1.511,0,0,1,1.038-.415c.3,0,.5-.009.721,0s.558-.044.849.689.984,2.534,1.073,2.717a.63.63,0,0,1,.007.632,2.464,2.464,0,0,1-.406.588c-.2.2-.421.456-.6.612-.2.172-.407.361-.2.729A10.939,10.939,0,0,0,16.281,18a10.543,10.543,0,0,0,3.006,1.9c.376.194.6.173.833-.06s1-1.019,1.268-1.37.522-.283.869-.151,2.192,1.071,2.568,1.265.627.293.716.447A2.852,2.852,0,0,1,25.249,21.737Z" transform="translate(-2.25 -2.25)"/></svg>