<svg xmlns="http://www.w3.org/2000/svg" width="26.814" height="26.676" viewBox="0 0 26.814 26.676"><defs><style>.a{fill:#fff;}</style></defs><path class="a" d="M15.9,2.25A13.08,13.08,0,0,0,2.737,15.244a12.81,12.81,0,0,0,1.889,6.71L2.25,28.926l7.288-2.3A13.244,13.244,0,0,0,15.9,28.239,13.08,13.08,0,0,0,29.064,15.244,13.08,13.08,0,0,0,15.9,2.25Zm6.546,17.929a3.4,3.4,0,0,1-2.328,1.493c-.617.033-.635.476-4-.979s-5.39-4.992-5.549-5.22a6.4,6.4,0,0,1-1.242-3.481A3.7,3.7,0,0,1,10.607,9.27a1.293,1.293,0,0,1,.912-.382c.265,0,.437-.008.633,0s.49-.041.745.633.864,2.331.942,2.5a.6.6,0,0,1,.006.582,2.273,2.273,0,0,1-.357.541c-.176.187-.37.419-.526.563-.175.159-.357.332-.174.671a10.024,10.024,0,0,0,1.782,2.366,9.19,9.19,0,0,0,2.639,1.746c.33.179.527.159.732-.055s.876-.938,1.113-1.26.459-.26.763-.139,1.925.986,2.255,1.164.55.27.629.411A2.737,2.737,0,0,1,22.446,20.179Z" transform="translate(-2.25 -2.25)"/></svg>