<svg xmlns="http://www.w3.org/2000/svg" width="63.815" height="82.359" viewBox="0 0 63.815 82.359"><defs><style>.a{fill:#fb6676;}</style></defs><path class="a" d="M64.075,32.915H61.035v-9.58a20.221,20.221,0,0,0-20.1-19.96C29.6,3.233,20.28,12.156,20.28,23.069v9.846H17.241A8.376,8.376,0,0,0,8.75,41.121V77.528a8.376,8.376,0,0,0,8.491,8.205H64.075a8.376,8.376,0,0,0,8.491-8.205V41.121A8.376,8.376,0,0,0,64.075,32.915Zm-20.445,25.6v9.338a2.984,2.984,0,0,1-2.823,2.954,2.932,2.932,0,0,1-3.12-2.872v-9.42a6.53,6.53,0,0,1-3.8-6.5,6.811,6.811,0,0,1,13.564.595A6.53,6.53,0,0,1,43.629,58.516Zm11.462-25.6H26.224V23.069a13.6,13.6,0,0,1,4.245-9.846,14.7,14.7,0,0,1,20.378,0,13.6,13.6,0,0,1,4.245,9.846Z" transform="translate(-8.75 -3.374)"/></svg>