<svg xmlns="http://www.w3.org/2000/svg" width="22.028" height="23.859" viewBox="0 0 22.028 23.859"><defs><style>.a{fill:#fff;}</style></defs><path class="a" d="M25.881,23.184a18.474,18.474,0,0,0-3.865-2.8c-1.158-.6-1.583-.59-2.4.05-.682.534-1.124,1.031-1.91.845S15.37,19.824,13.868,18.2a12.276,12.276,0,0,1-2.838-4.155c-.166-.857.292-1.329.78-2.068.591-.888.608-1.348.046-2.6A19.835,19.835,0,0,0,9.269,5.19c-.843-.913-1.032-.714-1.5-.534A8.3,8.3,0,0,0,6.4,5.444,4.357,4.357,0,0,0,4.756,7.327c-.327.764-.705,2.186,1.221,5.9a32.851,32.851,0,0,0,5.344,7.721h0l.006.006.006.006h0a30.853,30.853,0,0,0,7.128,5.789c3.429,2.087,4.742,1.677,5.448,1.323a4.214,4.214,0,0,0,1.737-1.783,9.529,9.529,0,0,0,.728-1.485C26.541,24.3,26.73,24.1,25.881,23.184Z" transform="translate(-4.49 -4.502)"/></svg>