<svg xmlns="http://www.w3.org/2000/svg" width="26.65" height="26.65" viewBox="0 0 26.65 26.65"><defs><style>.a{fill:#fa394a;}</style></defs><path class="a" d="M16.325,3A13.325,13.325,0,1,0,29.65,16.325,13.33,13.33,0,0,0,16.325,3ZM18.2,24.44v2.545H14.646V24.413c-2.279-.48-4.211-1.945-4.357-4.53H12.9c.133,1.4,1.093,2.492,3.531,2.492,2.612,0,3.2-1.306,3.2-2.119,0-1.106-.586-2.145-3.558-2.852-3.3-.8-5.57-2.159-5.57-4.89,0-2.292,1.852-3.784,4.144-4.277V5.665H18.2v2.6A4.711,4.711,0,0,1,22,12.781H19.39c-.067-1.479-.853-2.492-2.958-2.492-2,0-3.2.906-3.2,2.185,0,1.119.866,1.852,3.558,2.545s5.57,1.852,5.57,5.21C22.348,22.668,20.522,24,18.2,24.44Z" transform="translate(-3 -3)"/></svg>