<svg xmlns="http://www.w3.org/2000/svg" width="25.842" height="28.714" viewBox="0 0 25.842 28.714"><defs><style>.a{fill:#1e1e1e;}</style></defs><path class="a" d="M27.471,4.371H26.035V1.5H23.164V4.371H11.678V1.5H8.807V4.371H7.371A2.871,2.871,0,0,0,4.5,7.243v20.1a2.871,2.871,0,0,0,2.871,2.871h20.1a2.88,2.88,0,0,0,2.871-2.871V7.243A2.88,2.88,0,0,0,27.471,4.371ZM17.421,8.678a4.307,4.307,0,1,1-4.307,4.307A4.3,4.3,0,0,1,17.421,8.678Zm8.614,17.228H8.807V24.471c0-2.871,5.743-4.451,8.614-4.451s8.614,1.579,8.614,4.451Z" transform="translate(-4.5 -1.5)"/></svg>